#!OML:ASF F:\VICON\USERDATA\INSTALL\rory3\rory3.ASF
:FULLY-SPECIFIED
:DEGREES
401
root -15.8468 17.8729 9.75384 144.732 -85.5005 -147.542
lowerback 10.9267 2.36775 3.24698
upperback 1.49773 3.52088 1.23651
thorax -4.43538 1.66593 -1.04178
lowerneck -19.3975 -6.46744 -12.9457
upperneck 28.0004 -8.67015 9.99768
head 13.7878 -4.04365 4.59225
rclavicle -2.60905e-014 -1.37161e-014
rhumerus -26.119 -13.055 -80.3548
rradius 27.1825
rwrist 9.54376
rhand -15.2449 7.60226
rfingers 7.12502
rthumb 10.9286 -22.0933
lclavicle -2.60905e-014 -1.37161e-014
lhumerus -35.3995 4.09083 84.6708
lradius 28.368
lwrist -7.68423
lhand -14.8432 26.7492
lfingers 7.12502
lthumb 11.316 56.4239
rfemur -0.336384 -1.63821 28.6499
rtibia 22.1099
rfoot -14.3367 3.40979
rtoes 13.8822
lfemur -18.6743 -0.790376 -15.0936
ltibia 48.0914
lfoot -6.23793 -0.56854
ltoes -11.4898
402
root -15.9638 17.8614 9.75827 142.784 -85.3296 -145.556
lowerback 10.9374 2.43576 3.62642
upperback 1.48527 3.65502 1.21646
thorax -4.42384 1.72555 -1.2936
lowerneck -19.3244 -6.52529 -12.7233
upperneck 27.8599 -8.74561 9.77144
head 13.6981 -4.07914 4.44258
rclavicle 1.26477e-014 7.15625e-015
rhumerus -25.7701 -12.5757 -80.5455
rradius 27.6609
rwrist 9.07269
rhand -15.3835 7.78624
rfingers 7.12502
rthumb 10.7949 -21.9164
lclavicle 1.26477e-014 7.15625e-015
lhumerus -35.4615 4.47659 84.3455
lradius 27.9293
lwrist -8.89045
lhand -14.0849 26.3773
lfingers 7.12502
lthumb 12.0472 56.0106
rfemur 0.265184 -1.65077 28.8693
rtibia 21.7018
rfoot -14.6237 3.46168
rtoes 12.5754
lfemur -19.169 -0.557979 -14.8797
ltibia 46.6636
lfoot -6.56419 -0.227246
ltoes -13.6927
403
root -16.0833 17.8593 9.76451 140.098 -85.1188 -142.776
lowerback 10.8968 2.44694 4.07182
upperback 1.45168 3.72184 1.23739
thorax -4.40631 1.75106 -1.52798
lowerneck -19.3295 -6.56845 -12.5765
upperneck 27.7965 -8.78357 9.57913
head 13.6584 -4.10149 4.32915
rclavicle -2.61402e-014 -2.98177e-015
rhumerus -25.4127 -12.1387 -80.7423
rradius 28.199
rwrist 8.73015
rhand -15.3874 7.64919
rfingers 7.12502
rthumb 10.7911 -22.0536
lclavicle -2.61402e-014 -2.98177e-015
lhumerus -35.5989 4.89613 84.1016
lradius 27.5331
lwrist -9.71719
lhand -13.9944 26.3559
lfingers 7.12502
lthumb 12.1345 55.984
rfemur 0.849151 -1.57486 29.1772
rtibia 21.2396
rfoot -14.7283 3.36175
rtoes 11.871
lfemur -19.6478 -0.554472 -14.5585
ltibia 45.092
lfoot -6.69721 0.0852283
ltoes -13.2107
404
root -16.2034 17.8701 9.76807 139.715 -85.026 -142.249
lowerback 10.7868 2.48068 4.1297
upperback 1.40471 3.77384 1.31454
thorax -4.3933 1.77639 -1.48283
lowerneck -19.3272 -6.55601 -12.6888
upperneck 27.8143 -8.71707 9.54926
head 13.6608 -4.0881 4.34951
rclavicle -1.12065e-014 6.95746e-015
rhumerus -25.0142 -11.3945 -80.8867
rradius 28.7669
rwrist 7.88412
rhand -15.4491 7.11584
rfingers 7.12502
rthumb 10.7316 -22.5901
lclavicle -1.12065e-014 6.95746e-015
lhumerus -35.7885 5.59759 83.9467
lradius 27.1597
lwrist -10.4063
lhand -14.0093 26.1591
lfingers 7.12502
lthumb 12.1201 55.788
rfemur 1.40093 -1.6122 29.2059
rtibia 20.7124
rfoot -14.6428 3.42833
rtoes 12.4725
lfemur -20.1157 -0.79391 -14.4446
ltibia 43.3778
lfoot -6.85025 0.366875
ltoes -11.1039
405
root -16.3236 17.8732 9.77341 140.384 -85.0035 -142.776
lowerback 10.6234 2.52361 4.10945
upperback 1.41002 3.82054 1.31929
thorax -4.29623 1.80271 -1.46419
lowerneck -19.5133 -6.51098 -12.4019
upperneck 27.8752 -8.62269 9.24079
head 13.6788 -4.04874 4.19165
rclavicle 1.11816e-015 8.74653e-015
rhumerus -24.5507 -11.0146 -80.9428
rradius 29.0579
rwrist 7.3498
rhand -15.6566 7.79447
rfingers 7.12502
rthumb 10.5314 -21.9217
lclavicle 1.11816e-015 8.74653e-015
lhumerus -35.9112 5.89596 83.8741
lradius 26.895
lwrist -10.7228
lhand -13.5389 25.589
lfingers 7.12502
lthumb 12.5737 55.1907
rfemur 1.98539 -1.44546 29.1342
rtibia 20.1253
rfoot -14.5688 3.34431
rtoes 13.771
lfemur -20.4971 -1.00756 -14.4838
ltibia 41.5221
lfoot -6.95743 0.70798
ltoes -11.5224
406
root -16.4425 17.8662 9.7785 140.412 -84.9071 -142.661
lowerback 10.5291 2.56638 4.24434
upperback 1.37622 3.88775 1.25894
thorax -4.26243 1.83461 -1.60678
lowerneck -19.6707 -6.49933 -12.0919
upperneck 27.8855 -8.6322 9.06832
head 13.6905 -4.03578 4.06457
rclavicle 7.97623e-015 3.37934e-015
rhumerus -24.2408 -10.6363 -81.0185
rradius 29.3825
rwrist 7.10103
rhand -15.6874 8.6761
rfingers 7.12502
rthumb 10.5017 -21.0416
lclavicle 7.97623e-015 3.37934e-015
lhumerus -36.0352 5.61494 83.8724
lradius 26.6999
lwrist -10.5595
lhand -12.9542 25.5638
lfingers 7.12502
lthumb 13.1373 55.1299
rfemur 2.5198 -1.40737 29.1498
rtibia 19.6291
rfoot -14.6112 3.33223
rtoes 14.4982
lfemur -20.8326 -0.989031 -14.4551
ltibia 39.5316
lfoot -6.86383 0.931038
ltoes -12.4401
